<svg xmlns="http://www.w3.org/2000/svg" viewBox="0 0 64 64" role="img" aria-labelledby="title desc">
  <title id="title">Благовещение</title>
  <desc id="desc">Золотой православный крест на синем фоне</desc>
  <defs>
    <linearGradient id="field" x1="8" y1="6" x2="56" y2="58" gradientUnits="userSpaceOnUse">
      <stop stop-color="#174C6D"/>
      <stop offset="1" stop-color="#0A2D49"/>
    </linearGradient>
    <linearGradient id="gold" x1="32" y1="12" x2="32" y2="52" gradientUnits="userSpaceOnUse">
      <stop stop-color="#FFE7A1"/>
      <stop offset=".48" stop-color="#D5A94B"/>
      <stop offset="1" stop-color="#A66D24"/>
    </linearGradient>
    <filter id="shadow" x="-30%" y="-30%" width="160%" height="160%">
      <feDropShadow dx="0" dy="1.5" stdDeviation="1.2" flood-color="#061B2B" flood-opacity=".55"/>
    </filter>
  </defs>
  <circle cx="32" cy="32" r="30" fill="#08283F"/>
  <circle cx="32" cy="32" r="27.5" fill="url(#field)" stroke="#E3BC67" stroke-width="1.5"/>
  <path d="M32 8.5 34.15 14l5.5 2.15-5.5 2.15L32 24l-2.15-5.7-5.5-2.15 5.5-2.15L32 8.5Z" fill="#FFF0B5" opacity=".92"/>
  <g fill="url(#gold)" stroke="#744717" stroke-width="1" stroke-linejoin="round" filter="url(#shadow)">
    <path d="M29.15 19.2h5.7v7.1h8.6v5.65h-8.6v13.6l4.7-2.45 2.4 4.75L32 53l-9.95-5.15 2.4-4.75 4.7 2.45v-13.6h-8.6V26.3h8.6v-7.1Z"/>
    <path d="M20.55 14.4h22.9v3.25h-22.9z"/>
  </g>
  <path d="M25.1 52.1 32 55.6l6.9-3.5" fill="none" stroke="#FFF0B5" stroke-width="1.15" stroke-linecap="round" opacity=".75"/>
</svg>
